<?xml version="1.0" encoding="UTF-8"?>
<svg width="802" height="423" id="a" xmlns="http://www.w3.org/2000/svg" viewBox="0 0 802 423">
  <defs>
    <style>.c{fill:#fff;}</style>
  </defs>
  <path id="b" class="c" d="M205.23,134.38c3.41,.23,3.07,7.35,4.31,5.96,3.01-2.94,6.3,7.13,9.09,1.32,3.18,2.66,1.81,6.62,5.76,7.44,2.71-2.18,5.47-1.78,3.36,3.71,.86,2.71,.46,6.95,3.84,8.24,.89,4.98,6.75-3.78,7.68,2.86,3.13,5.08,5.47,.49,6.71,2.58,2.26,.71,3.8,4,7.66,1.65,3.5-2.35,2.8,1,3.85,3.7-.11,2.58-2.38,5.8-2.4,8.38,.86,5.28-.04,5,5.28,3.67,2.17-1.26,6.32,0,9.58,.55,5.17-1.93,10.73,1.28,10.07,.24-1.17,4.57,2.48,6.76,3.38,11.58,7.26-.31,3.27,5.23,7.67,7.4,1.86,.56,6.5,6.37,8.16,4.36,1.76-2.01-2.1,6.86,2.4,8.27-.14,4.55,2.11,8.13,7.22,9.68,2.51,1.76,2.05,8.43,6.23,5.16,6.33-.14,4.15-5.69,8.61-7,4.02,2.94-2.04,10.79,5.29,10.48,7.1-3.79,.04,5.6,3.85,7.49,1.82,5.11,8.23-.18,13.91,2.72-1.09-7.55,9.25-.05,4.8,1.41-.42,5.61-2.89,13.99,4.81,12.76,4.79,.8,4.4-4.33,7.17-5.46,.04,7.12,7.72,.59,8.17,2.85,2.3-.96,3.04,13.11,6.25,4.41,5.58-4.66,4.45,3.38,3.36,6.74,6.3,.17,2.91,5.08,1.45,8.3,1.51,4.96,7.06,2.12,9.11,3.59,1.84-5.34,9.23-1.87,7.69,2.86-2.5,1.72-7.03,2.88-3.35,6.89-.79,4.1,1.17,5.27,.03,8.33,4.06,4.6-5.75,4.36-4.78,10.4-3.27,3.25-.78,8.5,3.85,7.03,.55-.77,2.65,7.36,6.24,2.89,6.65-3.02-4.03,10.69,5.29,6.7,3.46,2.8,4.61-5.7,7.2,.6,2.39,2.37,5.8,6.23,8.16,4.36,5.74-2.55-3.1-6.44,2.38-8.38,5.25,.19,2.59-7.78,8.14-5.48-.46,2.89,6.72,.16,9.61,2.06,1.86-.34,4.67-.71,6.72,2.88,4.72-2.98,6.02,3.8,9.12,5.1,4.36,.66,.4,6.05,4.81,6.71-1,4.26-4.36,12.51,1.47,11.32,3.95-1.45,7.01-.76,9.6,1.3,2.44,4.34,7.41,2.26,9.6,3.57,2.47,3.13,5.68,4.11,4.35,8.99-1.92,2.31-5.51,8.9,.49,9.07-.49,5.76,3.93-2.81,3.84-3.87-3.66-1.59,6.33-1.96,9.63-.21,4.83,2.16,9.92,3.87,15.82,4.95,.78,3.92,3.93,5.21,4.82,8.98,4.67,1.41,12.11,3.22,13.43-.29,2.82,1.6,7.79-2.59,9.12-2.47,1.29-3.96,4.65-5.25,7.17-6.97,6.01,1.08,5.65,4.57,12,2.77,.87-4.86,6.89,3.33,4.79-3.13-3.59-4.16,.5-4.55,3.35-6.13,3.45-.23,5.43-.27,8.64,.57-.69,4.1,8.47,6.48,6.72-.14-4.91-.5-7.09-8.17,.95-5.32,2.69,2.67,8.4,2.24,11.04,2.79,.66-3.19,8.05-4.11,8.6-9.27,1.99-1.1,1.28-3.21-1.45-4.51-5.87-2.9-2.7-4.33-2.43-7.52-1.77-4.05-8.41-2.69-4.82-8.98,3.29-.68,.37-7.28,2.37-9.14,4.01-3.27-4.19-6.72,1.42-9.11,2.41,2.07,3.72-3.72,2.37-8.38,3.75-2.81,3.23-5.22,5.26-8.44,3.54,2.95,7.47-7.88,7.64-6.98,3.35-1.44,5.29-1.93,5.73-6.94,4.11-2.97,5.79-.13,4.3-6.91,3.34-2.34,5.99-4.22,5.72-9.21,2.56-2.33,.42-5,5.26-6.93-2.56-5.85,5.77-3,2.38-5.35-.57-5.44-1.45-7.54-.52-12.1,2.85-2.79,.52-7.28,4.28-7.66-3.88-.98-7.03-4.84-3.86-9,.36-8.33,1.33-14.26,1.38-19.71-2.99-5.99,2.64-14.29-4.86-9.73-4.37-2.48-8.72-.87-10.05-5.84-3.18-2.5-8.02,.33-9.58,3.24,2.25,5.86-3.55-1.29-3.35,2.04-1.96,2.62-1.28-3.45-1.45-4.96-.95-2.4,4.93-11.31,2.84-9.9-.23-3.17-3.49-12.49-8.17-8.15,.73,.44-3.82,2.81-4.79,6.16-2.01,5.65-5.62-3.51-7.68-5.13-2.39,.51-3.98-4.61-7.2-2.87-1.89,6.55-6.74,1.51-6.25-2.89,1.06-5.02-3.46-5.83-5.29-9.73-2.67-2.82-12.23-1.55-12.48-5.03-.56-4.08-3.47-7.95-9.13-8.13-4.28-2.33-11.52-3.53-15.83-3.44-4.16-3.85-8.37,2.15-11.49,1.01-1.41-4.06,4.96-6.77,3.79-10.68-6.74-.31-10.04-2.51-14.85-1.19-2.27,.96-5.35-1.7-7.18,3.19-1.46,1.24-5.93,3.91-8.6,6.24-3.38,3.71-8.83-1.47-11.98-2.77-6.28-.62-13.08-.62-14.87-5.73-4.83-2.01-6.04-.93-10.07-3.57-3.69-2.64-5.48,5.72-1.89,7.61,3.07-.07,2.03,4.65,2.89,8.26,2.5,3.88,.75,6.49-2.39,3.84-6.15-3.35-8.67,.04-10.04,4.76-2.49,3.39-9.91,.37-3.85-2.19-1.14-4.37-2.1-7.52,.94-11.38-1.01-3.01-1.86-2.84-5.28-5.18-2.45-1.91-2.19-4.49-4.81-7.47-2.87-1.75-3.76,.54-8.15,1.69-2.71,6.27-5.45-5.03-3.85-4.46,4.93-2.38-4.29-2.63-2.41-6-3.58-1.74-6.33-4.4-8.62-7.38-2.78-3.42-6.19-6.22-11.99-6.55-1.71-.72-9.17-.56-10.53,3.26-1.74,2.01-1.33,3.81-4.31,6.15-2.74-3.42-7.09-5.3-13.43-5.01-3.65,1.44,.83,12.85-5.73,5.42-1.86,.95-6.52-4.4-8.64-.57-3.81,.39,0,5,1.93,7.53,3.7,8.85-9.16-3.58-6.23,1.2-2.62-.55-2.96-8.26-5.75-4.72-3.9-.07-2.91,6.27-6.69,8.47-1.06,4.72-4.94,10.25-3.36,.68,2.28-7.77-3.17-7.8-6.24-11.07,.64-4.86-6.03-.32-10.07-2.05-4.83-1.86-7.13-.75-13.89-.45-3.46,3.56-8.89,6.55-6.23-2.59,.39-5.91-7.16-5.29-10.55-4.61-7.62-.14-4.94-4.43,0-3.78,3.02-1.58,5.95-6.04,7.19-7.73-.69-7.55,2.88-4.3,4.78-1.62,2.07-3.22,5-1.62,6.21-6.95,3.29-3.55-6.82-2.27-8.14-4.36-2.37-.55-7.39-.14-6.24-5.16-1.69-.42-3.12-2.96,1.45-6.09,2.57-5.2-5.43-11.84-3.38-12.04-2.59-3.58-7.66-3.31-11.08-5.06-5.5,1.63-8.78-2.69-12.38,1.78,1.98-.5-4.14,3.57-5.27,5.41-4.68,.71-1.44,13.05-4.78,5.4-2.84-1.91-4.1-2.94-3.36-6.74,.56-4.1-4.39-1.87-4.32-6.72-1.03-.13-4.64-4.14-6.22-2.14-3.46,1.29-10.82-1.28-8.14,3.96-1.64,3.52-8.69,2.46-7.17,7.73,2.25,4.04-7.58,1.83-2.41,.05-5.3,1.33,1.68-7.15-1.91-6.01-6.05,.28-7.82-6.94-11.49-1.26-2.04-4.65-6.14-2.14-7.67,1.68-5.18,1.78-5.84,4.97-5.26,8.44-2.17,3.53-2.71,12.32-3.82,14.47-2.51-2.82-9.39-.85-6.71-10.6,.32-5.61,2.87-17.17-3.84-10.36-2.98,1.88-6.93,2.88-9.09,5.5-2.95,.37-3.94,8.11-6.71,3.93,.23-4.24,2.24-9.89,3.35-13.7-.57-6.04-9.07-5.25-6.71-2.88-1.97,2.62-4.94,4.2-6.71,6.96-3.39,2.95-8.89,5.95-7.19,12.27,1.39,4.66,.91,10.73,2.4,15.09,4.08,4.45-9.32,8.83-.95,11.38,1.3,.88,9.16-2.32,9.58,.55,.7,2.41,7.75,.44,6.71,2.88,.85,5.58-3.47,8.25,3.39,9.77,5.45-5.42-.1,4.85,5.23,4.43,5.06,2.61-3.97,6.14,4.79,5.95,4.5,1.57-3.01,8.54,2.4,9.03,1.68,3.14,7.62,3.77,7.21,8.93,1.46-.49,5.92,4.56,5.75,.63h-.02Z" />
</svg>
