<svg width="24" height="24" viewBox="0 0 24 24" fill="none" xmlns="http://www.w3.org/2000/svg">
<path d="M7.68194 21H3V20.041H4.86792C6.04852 17.1721 7.2372 14.3361 8.43396 11.5328C9.63073 8.71311 10.8194 5.86885 12 3C13.1806 5.86885 14.3612 8.71311 15.5418 11.5328C16.7385 14.3361 17.9353 17.1721 19.1321 20.041H21V21H16.3423V20.041H18.1132C17.6604 18.959 17.2075 17.8852 16.7547 16.8197C16.3181 15.7541 15.8733 14.6803 15.4205 13.5984H8.57952C8.09434 14.7787 7.6496 15.8525 7.24528 16.8197C6.84097 17.7869 6.38814 18.8607 5.88679 20.041H7.68194V21ZM11.7574 5.95082C11.3208 7.06557 10.8598 8.18852 10.3747 9.31967C9.90566 10.4344 9.44474 11.541 8.99191 12.6393H15.0081L12.2183 5.95082L12 5.23771C11.9677 5.38525 11.9272 5.5082 11.8787 5.60656C11.8464 5.70492 11.8059 5.81967 11.7574 5.95082Z" fill="#2E2E2E"/>
<path d="M16 3.81818L18.1176 6L22 2" stroke="#2E2E2E" stroke-miterlimit="10"/>
</svg>
