<svg width="24" height="24" viewBox="0 0 24 24" fill="none" xmlns="http://www.w3.org/2000/svg">
<path d="M6 21.7628V19.6812H7.91195V4.08169H6.25157V2H10V12.224C10 12.3469 9.99161 12.4611 9.97484 12.5665C9.97484 12.6544 9.95807 12.7686 9.92453 12.9091C9.9413 12.8564 10.0084 12.7773 10.1258 12.6719C10.2432 12.549 10.4444 12.4084 10.7296 12.2503C11.0147 12.0922 11.3417 11.9517 11.7107 11.8287C12.0964 11.7058 12.5073 11.6443 12.9434 11.6443C13.6478 11.6443 14.3103 11.7848 14.9308 12.0659C15.5514 12.3294 16.088 12.6983 16.5409 13.1726C16.9937 13.6469 17.3459 14.2003 17.5975 14.8327C17.8658 15.4475 18 16.1063 18 16.809C18 17.5116 17.8658 18.1792 17.5975 18.8116C17.3459 19.444 16.9937 19.9974 16.5409 20.4717C16.088 20.946 15.5514 21.3237 14.9308 21.6047C14.3103 21.8682 13.6478 22 12.9434 22C12.457 22 12.021 21.9385 11.6352 21.8155C11.2495 21.7101 10.9224 21.5784 10.6541 21.4203C10.369 21.2798 10.1509 21.1392 10 20.9987C9.84906 20.8581 9.7652 20.7615 9.74843 20.7088C9.74843 20.8318 9.74843 20.9196 9.74843 20.9723C9.74843 21.025 9.74843 21.1129 9.74843 21.2358V21.7628H6ZM12.9434 13.7787C12.4738 13.7787 12.0461 13.8665 11.6604 14.0422C11.2914 14.2003 10.9811 14.4286 10.7296 14.7273C10.4948 14.9908 10.3103 15.307 10.1761 15.6759C10.0587 16.0272 10 16.4049 10 16.809C10 17.2657 10.0755 17.6961 10.2264 18.1001C10.3941 18.4866 10.6205 18.8204 10.9057 19.1014C11.174 19.3298 11.4759 19.5143 11.8113 19.6548C12.1635 19.7953 12.5409 19.8656 12.9434 19.8656C13.3795 19.8656 13.7736 19.7953 14.1258 19.6548C14.478 19.4967 14.7883 19.2859 15.0566 19.0224C15.3082 18.7413 15.5094 18.4163 15.6604 18.0474C15.8113 17.661 15.8868 17.2481 15.8868 16.809C15.8868 16.3347 15.8029 15.9043 15.6352 15.5178C15.4675 15.1137 15.2411 14.78 14.956 14.5165C14.7044 14.2881 14.4025 14.1124 14.0503 13.9895C13.7149 13.8489 13.3459 13.7787 12.9434 13.7787Z" fill="#2E2E2E"/>
</svg>
