<svg width="24" height="24" viewBox="0 0 24 24" fill="none" xmlns="http://www.w3.org/2000/svg">
<mask id="path-1-inside-1_186_243" fill="white">
<path d="M9.5 5H7.35714C5.93634 5 4.57373 5.52678 3.56907 6.46447C2.56441 7.40215 2 8.67392 2 10C2 11.3261 2.56441 12.5979 3.56907 13.5355C4.57373 14.4732 5.93634 15 7.35714 15H9.5"/>
</mask>
<path d="M7.35714 5L7.35714 4L7.35714 5ZM2 10H1H2ZM9.5 4H7.35714V6H9.5V4ZM7.35714 4C5.69253 4 4.0834 4.61654 2.88675 5.73341L4.25139 7.19552C5.06406 6.43703 6.18015 6 7.35714 6L7.35714 4ZM2.88675 5.73341C1.68777 6.85246 1 8.38557 1 10H3C3 8.96227 3.44105 7.95184 4.25139 7.19552L2.88675 5.73341ZM1 10C1 11.6144 1.68777 13.1475 2.88675 14.2666L4.25139 12.8045C3.44105 12.0482 3 11.0377 3 10H1ZM2.88675 14.2666C4.0834 15.3835 5.69253 16 7.35714 16V14C6.18015 14 5.06406 13.563 4.25139 12.8045L2.88675 14.2666ZM7.35714 16H9.5V14H7.35714V16Z" fill="#2E2E2E" mask="url(#path-1-inside-1_186_243)"/>
<path d="M7 10L17 10" stroke="#2E2E2E"/>
<mask id="path-4-inside-2_186_243" fill="white">
<path d="M14.5 15H16.6429C18.0637 15 19.4263 14.4732 20.4309 13.5355C21.4356 12.5979 22 11.3261 22 10C22 8.67392 21.4356 7.40215 20.4309 6.46447C19.4263 5.52678 18.0637 5 16.6429 5H14.5"/>
</mask>
<path d="M16.6429 15V14V15ZM14.5 16H16.6429V14H14.5V16ZM16.6429 16C18.3075 16 19.9166 15.3835 21.1132 14.2666L19.7486 12.8045C18.9359 13.563 17.8199 14 16.6429 14L16.6429 16ZM21.1132 14.2666C22.3122 13.1475 23 11.6144 23 10H21C21 11.0377 20.5589 12.0482 19.7486 12.8045L21.1132 14.2666ZM23 10C23 8.38557 22.3122 6.85246 21.1132 5.73341L19.7486 7.19552C20.5589 7.95184 21 8.96227 21 10H23ZM21.1132 5.73341C19.9166 4.61654 18.3075 4 16.6429 4V6C17.8199 6 18.9359 6.43703 19.7486 7.19552L21.1132 5.73341ZM16.6429 4H14.5V6H16.6429V4Z" fill="#2E2E2E" mask="url(#path-4-inside-2_186_243)"/>
<path d="M2 19L22 19" stroke="#2E2E2E"/>
</svg>
