<svg width="24" height="24" viewBox="0 0 24 24" fill="none" xmlns="http://www.w3.org/2000/svg">
<path d="M3 5L3 19" stroke="#2E2E2E"/>
<path d="M21 5V19" stroke="#2E2E2E"/>
<path d="M18 16.8205H15.1538V15.7692C15.1538 15.5641 15.1538 15.3761 15.1538 15.2051C15.1538 15.0171 15.1538 14.812 15.1538 14.5897C15.0342 14.8974 14.8462 15.1966 14.5897 15.4872C14.3504 15.7607 14.0598 16.0085 13.7179 16.2308C13.359 16.4701 12.9487 16.6581 12.4872 16.7949C12.0427 16.9316 11.5641 17 11.0513 17C10.3333 17 9.66667 16.8718 9.05128 16.6154C8.45299 16.359 7.92308 16 7.46154 15.5385C7 15.0769 6.64103 14.547 6.38462 13.9487C6.12821 13.3504 6 12.7009 6 12C6 11.3333 6.12821 10.6923 6.38462 10.0769C6.64103 9.46154 7 8.92308 7.46154 8.46154C7.92308 8.01709 8.45299 7.66667 9.05128 7.41026C9.66667 7.13675 10.3333 7 11.0513 7C12.0598 7 12.9231 7.24786 13.641 7.74359C14.359 8.22222 14.8632 8.79487 15.1538 9.46154C15.1538 9.10256 15.1624 8.73504 15.1795 8.35897C15.1966 7.96581 15.2222 7.5812 15.2564 7.20513H16.1026V15.8205H18V16.8205ZM11.0513 8.02564C10.4701 8.02564 9.93162 8.1282 9.4359 8.33333C8.94017 8.53846 8.52137 8.82906 8.17949 9.20513C7.82051 9.5641 7.53846 9.98291 7.33333 10.4615C7.1453 10.9402 7.05128 11.453 7.05128 12C7.05128 12.5812 7.16239 13.1197 7.38462 13.6154C7.60684 14.1111 7.91453 14.5385 8.30769 14.8974C8.66667 15.2393 9.07692 15.5043 9.53846 15.6923C10 15.8803 10.5043 15.9744 11.0513 15.9744C11.5983 15.9744 12.1111 15.8803 12.5897 15.6923C13.0684 15.4872 13.4872 15.2051 13.8462 14.8462C14.2222 14.4872 14.5128 14.0684 14.7179 13.5897C14.9402 13.094 15.0513 12.5641 15.0513 12C15.0513 11.4359 14.9402 10.9145 14.7179 10.4359C14.5128 9.94017 14.2308 9.51282 13.8718 9.15385C13.4957 8.79487 13.0684 8.52137 12.5897 8.33333C12.1111 8.1282 11.5983 8.02564 11.0513 8.02564Z" fill="#2E2E2E"/>
</svg>
