<svg width="24" height="24" viewBox="0 0 24 24" fill="none" xmlns="http://www.w3.org/2000/svg">
<path fill-rule="evenodd" clip-rule="evenodd" d="M9.5 16.3311C10.9945 15.4666 12 13.8507 12 12C12 10.1493 10.9945 8.53344 9.5 7.66891C10.2354 7.24349 11.0893 7 12 7C14.7614 7 17 9.23858 17 12C17 14.7614 14.7614 17 12 17C11.0893 17 10.2354 16.7565 9.5 16.3311Z" fill="#2E2E2E" fill-opacity="0.5"/>
<path fill-rule="evenodd" clip-rule="evenodd" d="M14.5 16.3311C15.9945 15.4666 17 13.8507 17 12C17 10.1493 15.9945 8.53344 14.5 7.66891C15.2354 7.24349 16.0893 7 17 7C19.7614 7 22 9.23858 22 12C22 14.7614 19.7614 17 17 17C16.0893 17 15.2354 16.7565 14.5 16.3311Z" fill="#2E2E2E" fill-opacity="0.1"/>
<circle cx="7" cy="12" r="5" fill="#2E2E2E"/>
</svg>
