<svg width="24" height="24" viewBox="0 0 24 24" fill="none" xmlns="http://www.w3.org/2000/svg">
<path d="M16 3.81818L18.1176 6L22 2" stroke="#2E2E2E" stroke-width="2" stroke-miterlimit="10"/>
<path d="M8.56546 21H3V19.0574H5.05571C6.20891 16.3525 7.36212 13.6803 8.51532 11.041C9.68524 8.38525 10.8468 5.70492 12 3C13.1532 5.70492 14.3064 8.38525 15.4596 11.041C16.6295 13.6803 17.7911 16.3525 18.9443 19.0574H21V21H15.4345V19.0574H16.8384C16.4875 18.2377 16.1365 17.4262 15.7855 16.623C15.4513 15.8197 15.1086 15.0082 14.7577 14.1885H9.24234C8.77437 15.2705 8.4234 16.082 8.18941 16.623C7.95543 17.1639 7.60446 17.9754 7.13649 19.0574H8.56546V21ZM11.7242 8.33607C11.4234 8.97541 11.1309 9.64754 10.8468 10.3525C10.5794 11.041 10.3287 11.6721 10.0947 12.2459H13.9053L12.2256 8.33607L11.9749 7.52459C11.9081 7.78689 11.8496 7.97541 11.7994 8.09016C11.766 8.20492 11.7409 8.28689 11.7242 8.33607Z" fill="#2E2E2E"/>
</svg>
