<svg width="24" height="24" viewBox="0 0 24 24" fill="none" xmlns="http://www.w3.org/2000/svg">
<path d="M12 12C12 17.5228 12 22 12 22C6.47715 22 2 17.5228 2 12C2 6.47715 6.47715 2 12 2C12 2 12 6.47715 12 12Z" fill="#2E2E2E"/>
<path d="M13 12V11.9677V11.9353V11.903V11.8708V11.8385V11.8063V11.7741V11.7419V11.7097V11.6776V11.6455V11.6134V11.5814V11.5494V11.5174V11.4854V11.4535V11.4215V11.3896V11.3578V11.3259V11.2941V11.2624V11.2306V11.1989V11.1672V11.1355V11.1039V11.0722V11.0406V11.0091V10.9776V10.9461V10.9146V10.8831V10.8517V10.8203V10.789V10.7577V10.7264V10.6951V10.6639V10.6327V10.6015V10.5703V10.5392V10.5081V10.4771V10.4461V10.4151V10.3841V10.3532V10.3223V10.2915V10.2606V10.2298V10.1991V10.1683V10.1376V10.107V10.0763V10.0457V10.0152V9.98465V9.95415V9.92369V9.89326V9.86286V9.8325V9.80218V9.77188V9.74163V9.71141V9.68122V9.65107V9.62095V9.59087V9.56083V9.53082V9.50084V9.47091V9.44101V9.41114V9.38132V9.35153V9.32177V9.29206V9.26238V9.23274V9.20313V9.17357V9.14404V9.11455V9.08509V9.05568V9.02631V8.99697V8.96767V8.93841V8.90919V8.88001V8.85087V8.82177V8.79271V8.76369V8.7347V8.70576V8.67686V8.648V8.61918V8.5904V8.56166V8.53297V8.50431V8.4757V8.44712V8.41859V8.3901V8.36166V8.33325V8.30489V8.27657V8.24829V8.22006V8.19186V8.16372V8.13561V8.10755V8.07953V8.05156V8.02362V7.99574V7.9679V7.9401V7.91234V7.88463V7.85697V7.82935V7.80178V7.77425V7.74676V7.71933V7.69193V7.66459V7.63729V7.61003V7.58282V7.55566V7.52855V7.50148V7.47446V7.44748V7.42056V7.39368V7.36685V7.34006V7.31333V7.28664V7.26V7.23341V7.20686V7.18037V7.15392V7.12753V7.10118V7.07488V7.04863V7.02243V6.99628V6.97018V6.94413V6.91813V6.89218V6.86628V6.84043V6.81464V6.78889V6.76319V6.73755V6.71196V6.68641V6.66092V6.63549V6.6101V6.58477V6.55949V6.53426V6.50908V6.48396V6.45889V6.43387V6.40891V6.38399V6.35914V6.33433V6.30958V6.28489V6.26025V6.23566V6.21113V6.18665V6.16222V6.13785V6.11354V6.08928V6.06508V6.04093V6.01684V5.99281V5.96882V5.9449V5.92103V5.89722V5.87347V5.84977V5.82613V5.80255V5.77902V5.75555V5.73214V5.70879V5.68549V5.66225V5.63907V5.61595V5.59289V5.56988V5.54694V5.52405V5.50122V5.47845V5.45574V5.43309V5.4105V5.38797V5.3655V5.34309V5.32074V5.29845V5.27623V5.25406V5.23195V5.2099V5.18792V5.166V5.14413V5.12233V5.1006V5.07892V5.0573V5.03575V5.01426V4.99284V4.97147V4.95017V4.92893V4.90776V4.88664V4.8656V4.84461V4.82369V4.80284V4.78204V4.76131V4.74065V4.72005V4.69952V4.67905V4.65864V4.6383V4.61803V4.59782V4.57767V4.5576V4.53759V4.51764V4.49776V4.47795V4.4582V4.43853V4.41891V4.39937V4.37989V4.36048V4.34114V4.32186V4.30265V4.28351V4.26444V4.24544V4.2265V4.20764V4.18884V4.17011V4.15145V4.13286V4.11434V4.09589V4.07751V4.05919V4.04095V4.02278V4.00468V3.98665V3.96869V3.95079V3.93298V3.91523V3.89755V3.87994V3.86241V3.84495V3.82756V3.81024V3.79299V3.77582V3.75871V3.74168V3.72473V3.70784V3.69103V3.67429V3.65763V3.64104V3.62452V3.60808V3.59171V3.57541V3.55919V3.54304V3.52697V3.51097V3.49505V3.4792V3.46343V3.44773V3.43211V3.41656V3.40109V3.3857V3.37038V3.35514V3.33998V3.32488V3.30987V3.29494V3.28008V3.2653V3.25059V3.23597V3.22142V3.20695V3.19255V3.17824V3.164V3.14984V3.13576V3.12176V3.10784V3.09399V3.08023V3.06655V3.05493C17.5 3.55237 21 7.36745 21 12C21 16.6326 17.5 20.4476 13 20.9451V20.9335V20.9198V20.906V20.8922V20.8782V20.8642V20.8502V20.836V20.8218V20.8074V20.7931V20.7786V20.764V20.7494V20.7347V20.7199V20.7051V20.6901V20.6751V20.66V20.6449V20.6296V20.6143V20.5989V20.5834V20.5679V20.5523V20.5366V20.5208V20.5049V20.489V20.473V20.457V20.4408V20.4246V20.4083V20.3919V20.3755V20.359V20.3424V20.3257V20.309V20.2922V20.2753V20.2583V20.2413V20.2242V20.207V20.1898V20.1724V20.1551V20.1376V20.1201V20.1025V20.0848V20.067V20.0492V20.0313V20.0134V19.9953V19.9772V19.959V19.9408V19.9225V19.9041V19.8857V19.8671V19.8485V19.8299V19.8112V19.7924V19.7735V19.7546V19.7356V19.7165V19.6973V19.6781V19.6589V19.6395V19.6201V19.6006V19.5811V19.5615V19.5418V19.522V19.5022V19.4824V19.4624V19.4424V19.4223V19.4022V19.382V19.3617V19.3414V19.321V19.3005V19.2799V19.2594V19.2387V19.218V19.1972V19.1763V19.1554V19.1344V19.1134V19.0922V19.0711V19.0498V19.0285V19.0072V18.9857V18.9642V18.9427V18.9211V18.8994V18.8777V18.8559V18.834V18.8121V18.7901V18.768V18.7459V18.7238V18.7015V18.6793V18.6569V18.6345V18.612V18.5895V18.5669V18.5443V18.5215V18.4988V18.476V18.4531V18.4301V18.4071V18.3841V18.3609V18.3377V18.3145V18.2912V18.2679V18.2444V18.221V18.1975V18.1739V18.1502V18.1265V18.1028V18.079V18.0551V18.0312V18.0072V17.9832V17.9591V17.9349V17.9107V17.8865V17.8621V17.8378V17.8134V17.7889V17.7643V17.7398V17.7151V17.6904V17.6657V17.6409V17.616V17.5911V17.5661V17.5411V17.516V17.4909V17.4657V17.4405V17.4152V17.3899V17.3645V17.3391V17.3136V17.288V17.2625V17.2368V17.2111V17.1854V17.1596V17.1337V17.1078V17.0819V17.0559V17.0298V17.0037V16.9776V16.9514V16.9251V16.8988V16.8725V16.8461V16.8196V16.7931V16.7666V16.74V16.7134V16.6867V16.6599V16.6332V16.6063V16.5794V16.5525V16.5255V16.4985V16.4715V16.4443V16.4172V16.39V16.3627V16.3354V16.3081V16.2807V16.2532V16.2258V16.1982V16.1706V16.143V16.1154V16.0877V16.0599V16.0321V16.0043V15.9764V15.9484V15.9205V15.8925V15.8644V15.8363V15.8081V15.7799V15.7517V15.7234V15.6951V15.6667V15.6383V15.6099V15.5814V15.5529V15.5243V15.4957V15.467V15.4383V15.4096V15.3808V15.352V15.3231V15.2942V15.2653V15.2363V15.2073V15.1782V15.1491V15.12V15.0908V15.0616V15.0323V15.003V14.9737V14.9443V14.9149V14.8855V14.856V14.8264V14.7969V14.7673L13 14.7376V14.7079V14.6782V14.6485V14.6187V14.5889V14.559V14.5291V14.4992V14.4692V14.4392V14.4091V14.379V14.3489V14.3188V14.2886V14.2584V14.2281V14.1978V14.1675V14.1371V14.1067V14.0763V14.0458V14.0153V13.9848V13.9543V13.9237V13.893V13.8624V13.8317V13.8009V13.7702V13.7394V13.7085V13.6777V13.6468V13.6159V13.5849V13.5539V13.5229V13.4919V13.4608V13.4297V13.3985V13.3673V13.3361V13.3049V13.2736V13.2423V13.211V13.1797V13.1483V13.1169V13.0854V13.0539V13.0224V12.9909V12.9594V12.9278V12.8961V12.8645V12.8328V12.8011V12.7694V12.7376V12.7059V12.6741V12.6422V12.6104V12.5785V12.5465V12.5146V12.4826V12.4506V12.4186V12.3866V12.3545V12.3224V12.2903V12.2581V12.2259V12.1937V12.1615V12.1292V12.097V12.0647V12.0323V12Z" stroke="#2E2E2E" stroke-width="2"/>
</svg>
