<svg width="24" height="24" viewBox="0 0 24 24" fill="none" xmlns="http://www.w3.org/2000/svg">
<mask id="path-1-inside-1_195_243" fill="white">
<path d="M9.5 5H7.35714C5.93634 5 4.57373 5.52678 3.56907 6.46447C2.56441 7.40215 2 8.67392 2 10C2 11.3261 2.56441 12.5979 3.56907 13.5355C4.57373 14.4732 5.93634 15 7.35714 15H9.5"/>
</mask>
<path d="M7.35714 5V3V5ZM2 10H0H2ZM9.5 3H7.35714V7H9.5V3ZM7.35714 3C5.44873 3 3.59307 3.70629 2.20443 5.00236L4.93371 7.92658C5.55439 7.34728 6.42395 7 7.35714 7V3ZM2.20443 5.00236C0.811131 6.30277 0 8.09721 0 10H4C4 9.25062 4.31769 8.50152 4.93371 7.92658L2.20443 5.00236ZM0 10C0 11.9028 0.811131 13.6972 2.20443 14.9976L4.93371 12.0734C4.31769 11.4985 4 10.7494 4 10H0ZM2.20443 14.9976C3.59307 16.2937 5.44873 17 7.35714 17V13C6.42395 13 5.55439 12.6527 4.93371 12.0734L2.20443 14.9976ZM7.35714 17H9.5V13H7.35714V17Z" fill="#2E2E2E" mask="url(#path-1-inside-1_195_243)"/>
<path d="M7 10L17 10" stroke="#2E2E2E" stroke-width="2"/>
<mask id="path-4-inside-2_195_243" fill="white">
<path d="M14.5 15H16.6429C18.0637 15 19.4263 14.4732 20.4309 13.5355C21.4356 12.5979 22 11.3261 22 10C22 8.67392 21.4356 7.40215 20.4309 6.46447C19.4263 5.52678 18.0637 5 16.6429 5H14.5"/>
</mask>
<path d="M16.6429 15V13V15ZM14.5 17H16.6429V13H14.5V17ZM16.6429 17C18.5513 17 20.4069 16.2937 21.7956 14.9976L19.0663 12.0734C18.4456 12.6527 17.576 13 16.6429 13V17ZM21.7956 14.9976C23.1889 13.6972 24 11.9028 24 10H20C20 10.7494 19.6823 11.4985 19.0663 12.0734L21.7956 14.9976ZM24 10C24 8.09721 23.1889 6.30277 21.7956 5.00236L19.0663 7.92658C19.6823 8.50152 20 9.25062 20 10H24ZM21.7956 5.00236C20.4069 3.70629 18.5513 3 16.6429 3V7C17.576 7 18.4456 7.34728 19.0663 7.92658L21.7956 5.00236ZM16.6429 3H14.5V7H16.6429V3Z" fill="#2E2E2E" mask="url(#path-4-inside-2_195_243)"/>
<path d="M2 19L22 19" stroke="#2E2E2E" stroke-width="2"/>
</svg>
