<svg width="24" height="24" viewBox="0 0 24 24" fill="none" xmlns="http://www.w3.org/2000/svg">
<path d="M19 3L5 3.00029" stroke="#2E2E2E" stroke-width="2"/>
<path d="M19 21H5" stroke="#2E2E2E" stroke-width="2"/>
<path d="M18 16.771H14.2516V16.2621C14.2516 16.1433 14.2516 16.0585 14.2516 16.0076C14.2516 15.9567 14.2516 15.8719 14.2516 15.7532C14.2348 15.8041 14.1509 15.8974 14 16.0331C13.8491 16.1688 13.6394 16.3045 13.3711 16.4402C13.086 16.5929 12.7505 16.7201 12.3648 16.8219C11.979 16.9406 11.543 17 11.0566 17C10.3522 17 9.68973 16.8728 9.06918 16.6183C8.44864 16.3469 7.91195 15.9822 7.45912 15.5242C7.00629 15.0662 6.6457 14.5403 6.37736 13.9466C6.12579 13.3359 6 12.6913 6 12.0127C6 11.3511 6.12579 10.715 6.37736 10.1043C6.6457 9.49364 7.00629 8.95929 7.45912 8.50127C7.91195 8.04326 8.44864 7.67854 9.06918 7.40712C9.68973 7.13571 10.3522 7 11.0566 7C11.979 7 12.7086 7.16964 13.2453 7.50891C13.782 7.83121 14.1174 8.13656 14.2516 8.42494C14.2683 8.2553 14.2851 8.0687 14.3019 7.86514C14.3354 7.64461 14.3522 7.43257 14.3522 7.22901H16.0881V14.7608H18V16.771ZM11.0566 9.06107C10.6038 9.06107 10.1845 9.14589 9.79874 9.31552C9.413 9.46819 9.09434 9.68872 8.84277 9.9771C8.60797 10.2316 8.42348 10.5284 8.28931 10.8677C8.17191 11.207 8.11321 11.5802 8.11321 11.9873C8.11321 12.4623 8.20545 12.9033 8.38994 13.3104C8.5912 13.7176 8.85954 14.0568 9.19497 14.3282C9.42977 14.5148 9.7065 14.6675 10.0252 14.7863C10.3438 14.888 10.6876 14.9389 11.0566 14.9389C11.4759 14.9389 11.8532 14.8711 12.1887 14.7354C12.5409 14.5997 12.8428 14.4131 13.0943 14.1756C13.3795 13.9042 13.5975 13.5818 13.7484 13.2087C13.9161 12.8355 14 12.4283 14 11.9873C14 11.5462 13.9161 11.1391 13.7484 10.7659C13.5975 10.3927 13.3878 10.0789 13.1195 9.82443C12.8512 9.58694 12.5409 9.40034 12.1887 9.26463C11.8532 9.12892 11.4759 9.06107 11.0566 9.06107Z" fill="#2E2E2E"/>
</svg>
