<svg width="24" height="24" viewBox="0 0 24 24" fill="none" xmlns="http://www.w3.org/2000/svg">
<path fill-rule="evenodd" clip-rule="evenodd" d="M20.0007 18C18.1763 20.4289 15.2716 22 12 22C8.72836 22 5.82368 20.4289 3.99927 18H20.0007ZM21.5422 15H2.4578C2.16035 14.053 2 13.0452 2 12C2 10.9548 2.16035 9.94704 2.4578 9H21.5422C21.8396 9.94704 22 10.9548 22 12C22 13.0452 21.8396 14.053 21.5422 15ZM12 2C8.72836 2 5.82368 3.57111 3.99927 6H20.0007C18.1763 3.57111 15.2716 2 12 2Z" fill="#2E2E2E"/>
</svg>
