<svg width="24" height="24" viewBox="0 0 24 24" fill="none" xmlns="http://www.w3.org/2000/svg">
<path fill-rule="evenodd" clip-rule="evenodd" d="M13 17.1973C14.7934 16.1599 16 14.2208 16 12C16 9.77915 14.7934 7.84012 13 6.80269C13.8825 6.29218 14.9071 6 16 6C19.3137 6 22 8.68629 22 12C22 15.3137 19.3137 18 16 18C14.9071 18 13.8825 17.7078 13 17.1973Z" fill="#CBCBCB"/>
<path fill-rule="evenodd" clip-rule="evenodd" d="M9 17.1973C10.7934 16.1599 12 14.2208 12 12C12 9.77915 10.7934 7.84012 9 6.80269C9.88252 6.29218 10.9071 6 12 6C15.3137 6 18 8.68629 18 12C18 15.3137 15.3137 18 12 18C10.9071 18 9.88252 17.7078 9 17.1973Z" fill="#6B6B6B"/>
<circle cx="8" cy="12" r="6" fill="#2E2E2E"/>
</svg>
